<svg width="41" height="26" viewBox="0 0 41 26" fill="none" xmlns="http://www.w3.org/2000/svg">
<path d="M33.2021 2.48535L38.3525 14.1968C38.5461 14.637 38.6459 15.1111 38.6459 15.5899V16.6324" stroke="#973333" stroke-width="4" stroke-linecap="round" stroke-linejoin="round"/>
<path d="M7.79784 2.48535L2.6475 14.1968C2.4539 14.637 2.35406 15.1111 2.35406 15.5899V16.6324" stroke="#973333" stroke-width="4" stroke-linecap="round" stroke-linejoin="round"/>
<path d="M9.61244 23.7059C13.6211 23.7059 16.8708 20.5391 16.8708 16.6324C16.8708 12.7258 13.6211 9.55884 9.61244 9.55884C5.60376 9.55884 2.35406 12.7258 2.35406 16.6324C2.35406 20.5391 5.60376 23.7059 9.61244 23.7059Z" stroke="#D83D3D" stroke-width="4" stroke-linecap="round" stroke-linejoin="round"/>
<path d="M31.3876 23.7059C35.3964 23.7059 38.646 20.5391 38.646 16.6324C38.646 12.7258 35.3964 9.55884 31.3876 9.55884C27.3788 9.55884 24.1292 12.7258 24.1292 16.6324C24.1292 20.5391 27.3788 23.7059 31.3876 23.7059Z" stroke="#D83D3D" stroke-width="4" stroke-linecap="round" stroke-linejoin="round"/>
<path d="M16.8708 16.6324L17.2539 16.4457C19.2974 15.4501 21.7025 15.4501 23.746 16.4457L24.1292 16.6324" stroke="#D83D3D" stroke-width="4" stroke-linecap="round" stroke-linejoin="round"/>
</svg>
